<svg width="33" height="33" viewBox="0 0 33 33" fill="none" xmlns="http://www.w3.org/2000/svg">
<rect x="0.453156" y="0.0854492" width="32" height="32.001" rx="16" fill="white"/>
<path d="M17.2032 8.58751C13.5188 8.58751 10.4016 11.0016 9.34222 14.3297C10.9172 13.5328 12.6938 13.0875 14.5782 13.0875H18.7032C19.1157 13.0875 19.4532 13.425 19.4532 13.8375C19.4532 14.25 19.1157 14.5875 18.7032 14.5875H17.9532H14.5782C13.8 14.5875 13.0453 14.6766 12.3188 14.8406C11.1047 15.1172 9.97503 15.6094 8.97191 16.2797C6.24847 18.0938 4.45316 21.1922 4.45316 24.7125V25.4625C4.45316 26.086 4.95472 26.5875 5.57816 26.5875C6.20159 26.5875 6.70316 26.086 6.70316 25.4625V24.7125C6.70316 22.4297 7.67347 20.3766 9.22503 18.9375C10.1532 22.4766 13.3735 25.0875 17.2032 25.0875H17.25C23.4422 25.0547 28.4532 18.9516 28.4532 11.4281C28.4532 9.43126 28.1016 7.53283 27.4641 5.82189C27.3422 5.49845 26.8688 5.51251 26.7047 5.8172C25.8235 7.4672 24.0797 8.58751 22.0782 8.58751H17.2032Z" fill="#18B735"/>
</svg>
